<?xml version="1.0" encoding="UTF-8"?>
<svg width="128" height="128" viewBox="0 0 128 128" fill="none" xmlns="http://www.w3.org/2000/svg">
  <!-- Background -->
  <rect width="128" height="128" rx="8" fill="#059669"/>
  
  <!-- Building Icon -->
  <g transform="translate(32, 28)">
    <!-- Main Building -->
    <rect x="10" y="20" width="44" height="44" rx="2" fill="white" opacity="0.9"/>
    
    <!-- Windows -->
    <rect x="16" y="26" width="8" height="8" rx="1" fill="#059669"/>
    <rect x="28" y="26" width="8" height="8" rx="1" fill="#059669"/>
    <rect x="40" y="26" width="8" height="8" rx="1" fill="#059669"/>
    
    <rect x="16" y="38" width="8" height="8" rx="1" fill="#059669"/>
    <rect x="28" y="38" width="8" height="8" rx="1" fill="#059669"/>
    <rect x="40" y="38" width="8" height="8" rx="1" fill="#059669"/>
    
    <rect x="16" y="50" width="8" height="8" rx="1" fill="#059669"/>
    <rect x="40" y="50" width="8" height="8" rx="1" fill="#059669"/>
    
    <!-- Door -->
    <rect x="28" y="50" width="8" height="14" fill="#047857"/>
    
    <!-- Roof -->
    <path d="M5 20 L32 5 L59 20 L59 22 L5 22 Z" fill="white"/>
    
    <!-- Vireo Bird silhouette -->
    <path d="M27 10 Q30 8 33 10 L34 12 L33 13 Q32 14 30 14 Q28 14 27 13 L26 12 Z" fill="#059669"/>
  </g>
  
  <!-- Text -->
  <text x="64" y="105" text-anchor="middle" font-family="system-ui, -apple-system, sans-serif" font-size="10" font-weight="700" fill="white">
    VIREO
  </text>
</svg>