<?xml version="1.0" encoding="UTF-8"?>
<svg width="128" height="128" viewBox="0 0 128 128" fill="none" xmlns="http://www.w3.org/2000/svg">
  <!-- Background -->
  <rect width="128" height="128" rx="8" fill="#0891b2"/>
  
  <!-- Trophy Icon -->
  <g transform="translate(32, 24)">
    <!-- Trophy Cup -->
    <path d="M20 16 C20 16 18 24 18 32 C18 40 20 48 32 48 C44 48 46 40 46 32 C46 24 44 16 44 16 Z" fill="white" opacity="0.95"/>
    
    <!-- Trophy Handles -->
    <path d="M20 20 C10 20 6 24 6 30 C6 36 10 40 16 40" stroke="white" stroke-width="4" fill="none" opacity="0.9"/>
    <path d="M44 20 C54 20 58 24 58 30 C58 36 54 40 48 40" stroke="white" stroke-width="4" fill="none" opacity="0.9"/>
    
    <!-- Trophy Base -->
    <rect x="26" y="48" width="12" height="6" fill="white" opacity="0.9"/>
    <rect x="22" y="54" width="20" height="4" fill="white" opacity="0.9"/>
    <rect x="18" y="58" width="28" height="6" rx="1" fill="white" opacity="0.95"/>
    
    <!-- Star on Trophy -->
    <path d="M32 26 L34 30 L38 30 L35 33 L36 37 L32 35 L28 37 L29 33 L26 30 L30 30 Z" fill="#0891b2"/>
  </g>
  
  <!-- Text -->
  <text x="64" y="105" text-anchor="middle" font-family="system-ui, -apple-system, sans-serif" font-size="10" font-weight="700" fill="white">
    VIREO
  </text>
</svg>