<?xml version="1.0" encoding="UTF-8"?>
<svg width="256" height="256" viewBox="0 0 256 256" fill="none" xmlns="http://www.w3.org/2000/svg">
  <!-- Background -->
  <rect width="256" height="256" rx="16" fill="#0891b2"/>
  
  <!-- Trophy Icon -->
  <g transform="translate(64, 48)">
    <!-- Trophy Cup -->
    <path d="M40 32 C40 32 36 48 36 64 C36 80 40 96 64 96 C88 96 92 80 92 64 C92 48 88 32 88 32 Z" fill="white" opacity="0.95"/>
    
    <!-- Trophy Handles -->
    <path d="M40 40 C20 40 12 48 12 60 C12 72 20 80 32 80" stroke="white" stroke-width="8" fill="none" opacity="0.9"/>
    <path d="M88 40 C108 40 116 48 116 60 C116 72 108 80 96 80" stroke="white" stroke-width="8" fill="none" opacity="0.9"/>
    
    <!-- Trophy Base -->
    <rect x="52" y="96" width="24" height="12" fill="white" opacity="0.9"/>
    <rect x="44" y="108" width="40" height="8" fill="white" opacity="0.9"/>
    <rect x="36" y="116" width="56" height="12" rx="2" fill="white" opacity="0.95"/>
    
    <!-- Star on Trophy -->
    <path d="M64 52 L68 60 L76 60 L70 66 L72 74 L64 70 L56 74 L58 66 L52 60 L60 60 Z" fill="#0891b2"/>
    
    <!-- Vireo Bird silhouette on base -->
    <g transform="translate(56, 118)">
      <path d="M0 3 Q2 1 4 1 Q6 1 8 3 L9 5 L8 6 Q6 7 4 7 Q2 7 0 6 L-1 5 Z" fill="#0891b2" opacity="0.8"/>
    </g>
  </g>
  
  <!-- Text -->
  <text x="128" y="210" text-anchor="middle" font-family="system-ui, -apple-system, sans-serif" font-size="20" font-weight="700" fill="white">
    VIREO
  </text>
  <text x="128" y="232" text-anchor="middle" font-family="system-ui, -apple-system, sans-serif" font-size="14" font-weight="400" fill="white" opacity="0.9">
    Sports League Manager
  </text>
</svg>