<svg width="32" height="32" viewBox="0 0 32 32" xmlns="http://www.w3.org/2000/svg">
  <!-- Medium size bird icon for headers/buttons -->
  <path d="M6 10 C6 8, 8 7, 12 8 C15 6, 18 7, 21 9 C24 10, 26 12, 26 15 C26 18, 24 20, 21 21 C19 22, 17 22, 15 21 L14 23 C12 24, 10 23, 9 22 C7 21, 6 18, 6 15 Z" fill="currentColor"/>
  
  <!-- Wing detail -->
  <path d="M15 14 C17 15, 20 17, 22 20 C20 19, 18 17, 16 16 C15.5 15, 15 14.5, 15 14 Z" fill="currentColor" opacity="0.3"/>
  
  <!-- Eye -->
  <circle cx="11" cy="11" r="1.2" fill="white"/>
  
  <!-- Beak -->
  <path d="M6 10 L3 9.5 L6 12 Z" fill="currentColor"/>
  
  <!-- Feet -->
  <path d="M14 23 L13 26 M15 23 L16 26" stroke="currentColor" stroke-width="1" stroke-linecap="round"/>
</svg>