<svg width="24" height="24" viewBox="0 0 24 24" xmlns="http://www.w3.org/2000/svg">
  <!-- Simplified bird silhouette for small usage -->
  <path d="M4 8 C4 6, 6 5, 9 6 C11 4, 14 5, 16 7 C18 8, 19 10, 19 12 C19 14, 18 16, 16 17 C15 18, 13 18, 12 17 L11 18 C10 19, 8 18, 7 17 C6 16, 5 14, 4 12 Z" fill="currentColor"/>
  
  <!-- Eye -->
  <circle cx="8" cy="8.5" r="0.8" fill="white"/>
  
  <!-- Beak -->
  <path d="M4 8 L2 7.5 L4 9 Z" fill="currentColor"/>
  
  <!-- Feet -->
  <path d="M11 18 L10 20 M12 18 L13 20" stroke="currentColor" stroke-width="0.8" stroke-linecap="round"/>
</svg>